<svg xmlns="http://www.w3.org/2000/svg" width="15" height="23" viewBox="0 0 15 23"><g><g><path fill="#fff" d="M10.709 1.963c.183.112.39.275.619.489a5.442 5.442 0 0 1 1.182 1.914c.128.42.192.908.192 1.467-.017 1.025-.248 1.844-.691 2.46a7.752 7.752 0 0 1-.691.824c-.27.251-.557.507-.861.768a3.998 3.998 0 0 0-.483.601c-.174.233-.26.503-.26.81 0 .299.088.545.267.74.151.187.299.35.441.49l.99.796a9.845 9.845 0 0 1 1.62 1.635c.436.605.664 1.397.682 2.376 0 1.387-.625 2.617-1.874 3.688-1.295 1.109-3.163 1.682-5.605 1.719-2.044-.019-3.57-.447-4.579-1.283C.641 20.676.132 19.74.132 18.654c0-.53.165-1.12.496-1.772.321-.65.903-1.223 1.745-1.715a9.202 9.202 0 0 1 2.978-1.06c1.03-.149 1.886-.232 2.567-.251a6.091 6.091 0 0 1-.563-.871c-.192-.3-.288-.66-.288-1.082 0-.253.037-.464.11-.632l.178-.492a8.404 8.404 0 0 1-.937.056c-1.554-.018-2.738-.498-3.553-1.439-.852-.875-1.279-1.895-1.279-3.06 0-1.406.604-2.782 1.812-3.928.83-.67 1.692-1.209 2.587-1.414C6.87.817 7.7.603 8.475.603h5.836l-1.802 1.36zm-1.021 7.28a2.94 2.94 0 0 0 .476-1.12c.043-.382.064-.704.064-.966 0-1.13-.294-2.268-.883-3.416a3.815 3.815 0 0 0-1.09-1.344c-.46-.327-.989-.5-1.587-.518-.79.019-1.448.331-1.972.938a3.482 3.482 0 0 0-.635 2.128c0 1.036.309 2.115.927 3.234.299.523.685.966 1.158 1.33a2.587 2.587 0 0 0 1.621.546c.769-.027 1.409-.298 1.921-.812zm1.424 7.309c-.512-.513-1.31-1.142-2.398-1.887a6.624 6.624 0 0 0-.655-.028c-.149-.019-.53 0-1.143.056-.604.084-1.222.219-1.854.405-.149.056-.358.14-.627.252a3.85 3.85 0 0 0-.823.517 3.03 3.03 0 0 0-.683.866c-.213.364-.32.802-.32 1.314 0 1.006.464 1.835 1.394 2.488.883.652 2.09.987 3.624 1.006 1.375-.019 2.425-.317 3.15-.895.706-.568 1.06-1.3 1.06-2.194a2.76 2.76 0 0 0-.725-1.9z"/></g></g></svg>