<svg xmlns="http://www.w3.org/2000/svg" width="32" height="24" viewBox="0 0 32 24"><g><g><path fill="#fff" d="M.618 16.951s6.224 5.395 11.174.047c0 0-.828-.001-1.359-.408-.484-.371-.676-1.151-.676-1.151s1.54-.859.962-1.507c0 0-3.406-.067-3.596-2.117l2-1.287s-.786.38-1.564-.006c0 0-2.019-1.444-1.634-2.922l1.687-.171S4.686 5.356 5.503 3.763c0 0 .282-1.37 9.963 5.037 0 0 1.707-6.055 4.86-7.386 0 0 .523.25.523.517 0 0 .448-.958 1.037-1.047 0 0 .713.625.25.982 0 0 1.199-.818 1.784-.403 0 0-.048.727-1.772 1.633 0 0 4.475.247 6.036 6.193 0 0 1.941.696 3.763-.472 0 0 .151.879-2.678 2.122 0 0 .264.423 2.634.1 0 0-.018 1.759-3.769 1.745 0 0-3.167 9.147-10.866 10.406C7.912 24.72 1.34 20.058.618 16.95z"/></g></g></svg>